HIERARCHY
ROOT joint_Root
{
	OFFSET 0.0 0.0 0.0
	CHANNELS 6 Xposition Yposition Zposition Zrotation Xrotation Yrotation 
	JOINT Hips
	{
		OFFSET 4.5925 91.4895 -427.239
		CHANNELS 6 Xposition Yposition Zposition Zrotation Xrotation Yrotation 
		JOINT Spine
		{
			OFFSET 15.7357 0.0 0.0
			CHANNELS 6 Xposition Yposition Zposition Zrotation Xrotation Yrotation 
			JOINT Chest
			{
				OFFSET 8.98455 -0.406207 0.0
				CHANNELS 6 Xposition Yposition Zposition Zrotation Xrotation Yrotation 
				JOINT Neck
				{
					OFFSET 16.3773 0.0 0.0
					CHANNELS 6 Xposition Yposition Zposition Zrotation Xrotation Yrotation 
					JOINT Head
					{
						OFFSET 6.45672 0.0 0.0
						CHANNELS 6 Xposition Yposition Zposition Zrotation Xrotation Yrotation 
						End Site
						{
							OFFSET 0.0 0.0 0.0
						}
					}
				}
				JOINT Shoulder_L
				{
					OFFSET 12.9942 -0.242716 4.98039
					CHANNELS 6 Xposition Yposition Zposition Zrotation Xrotation Yrotation 
					JOINT UpperArm_L
					{
						OFFSET 5.34809 0.0 0.0
						CHANNELS 6 Xposition Yposition Zposition Zrotation Xrotation Yrotation 
						JOINT LowerArm_L
						{
							OFFSET 24.3286 1.87007e-05 0.0
							CHANNELS 6 Xposition Yposition Zposition Zrotation Xrotation Yrotation 
							JOINT Hand_L
							{
								OFFSET 22.2916 0.0 0.0
								CHANNELS 6 Xposition Yposition Zposition Zrotation Xrotation Yrotation 
								End Site
								{
									OFFSET 0.0 0.0 0.0
								}
							}
						}
					}
				}
				JOINT Shoulder_R
				{
					OFFSET 12.9945 -0.242716 -4.98039
					CHANNELS 6 Xposition Yposition Zposition Zrotation Xrotation Yrotation 
					JOINT UpperArm_R
					{
						OFFSET -5.34813 0.0 0.0
						CHANNELS 6 Xposition Yposition Zposition Zrotation Xrotation Yrotation 
						JOINT LowerArm_R
						{
							OFFSET -24.3289 0.000322201 0.0
							CHANNELS 6 Xposition Yposition Zposition Zrotation Xrotation Yrotation 
							JOINT Hand_R
							{
								OFFSET -22.2915 -0.000108084 0.0
								CHANNELS 6 Xposition Yposition Zposition Zrotation Xrotation Yrotation 
								End Site
								{
									OFFSET 0.0 0.0 0.0
								}
							}
						}
					}
				}
			}
		}
		JOINT UpperLeg_L
		{
			OFFSET -2.19248 -6.46944 0.0
			CHANNELS 6 Xposition Yposition Zposition Zrotation Xrotation Yrotation 
			JOINT LowerLeg_L
			{
				OFFSET 39.0811 0.0 -1.23785e-05
				CHANNELS 6 Xposition Yposition Zposition Zrotation Xrotation Yrotation 
				JOINT Foot_L
				{
					OFFSET 40.9854 0.0 -1.26872e-05
					CHANNELS 6 Xposition Yposition Zposition Zrotation Xrotation Yrotation 
					JOINT Toes_L
					{
						OFFSET 11.7543 0.0 0.0
						CHANNELS 6 Xposition Yposition Zposition Zrotation Xrotation Yrotation 
						End Site
						{
							OFFSET 0.0 0.0 0.0
						}
					}
				}
			}
		}
		JOINT UpperLeg_R
		{
			OFFSET -2.19251 6.46944 0.0
			CHANNELS 6 Xposition Yposition Zposition Zrotation Xrotation Yrotation 
			JOINT LowerLeg_R
			{
				OFFSET -39.0811 -0.00228153 -0.0401928
				CHANNELS 6 Xposition Yposition Zposition Zrotation Xrotation Yrotation 
				JOINT Foot_R
				{
					OFFSET -40.9854 0.0 0.0
					CHANNELS 6 Xposition Yposition Zposition Zrotation Xrotation Yrotation 
					JOINT Toes_R
					{
						OFFSET -11.7543 0.0 0.0
						CHANNELS 6 Xposition Yposition Zposition Zrotation Xrotation Yrotation 
						End Site
						{
							OFFSET 0.0 0.0 0.0
						}
					}
				}
			}
		}
	}
}
MOTION
Frames:	9
Frame Time:	0.0333333
0.000000 0.000000 0.000000 0.000000 0.000000 -0.000000 -0.585728 90.235300 -3.197400 88.983100 -2.957690 11.891500 15.735700 0.000005 -0.000001 86.524600 76.349700 -87.487800 8.984550 -0.406207 -0.000000 19.476300 -1.717640 -1.637040 16.377300 -0.000001 -0.000001 12.615800 -2.562350 2.998840 6.456720 -0.000001 -0.000000 -7.642740 -0.830346 -2.153260 12.994200 -0.242716 4.980390 -91.294800 5.338200 -76.344800 5.348090 -0.000007 -0.000001 -47.420100 41.099700 -34.739300 24.328600 0.000019 0.000005 6.582310 17.106600 -21.419300 22.291600 -0.000001 0.000005 10.681800 5.244270 1.583590 12.994500 -0.242716 -4.980390 89.595600 1.573700 -75.586900 -5.348130 -0.000001 -0.000004 -73.579200 -12.551800 -78.858200 -24.328900 0.000322 -0.000009 15.535000 -5.606180 -109.363000 -22.291500 -0.000108 -0.000004 21.072600 5.231160 1.925480 -2.192480 -6.469440 -0.000000 -173.896000 -11.347600 -2.340580 39.081100 -0.000007 -0.000012 -0.195522 0.281108 34.820600 40.985400 -0.000006 -0.000013 -0.194857 4.088320 -70.284300 11.754300 -0.000000 0.000003 -0.000135 -0.001332 -16.628300 -2.192510 6.469440 -0.000001 175.080000 19.030600 178.853000 -39.081100 -0.002282 -0.040193 -0.065019 0.100818 34.120800 -40.985400 0.000008 0.000006 6.161420 12.332500 -71.425100 -11.754300 -0.000006 -0.000006 -0.002472 -0.034473 -17.974900
0.000000 0.000000 0.000000 0.000000 0.000000 -0.000000 -0.576622 90.242500 -3.203090 88.973800 -2.983560 11.905500 15.735700 0.000005 -0.000001 86.526900 76.312800 -87.506600 8.984550 -0.406207 -0.000000 19.549900 -1.723020 -1.668280 16.377300 -0.000001 -0.000001 12.668600 -2.587460 2.991950 6.456720 -0.000001 -0.000000 -7.635340 -0.865825 -2.207030 12.994200 -0.242716 4.980390 -91.300600 5.362940 -76.346600 5.348090 -0.000007 -0.000001 -47.385200 41.092700 -34.753500 24.328600 0.000019 0.000005 6.571920 17.010100 -21.495200 22.291600 -0.000001 0.000005 10.725000 5.243810 1.595820 12.994500 -0.242716 -4.980390 89.581200 1.622140 -75.523000 -5.348130 -0.000001 -0.000004 -73.574500 -12.489900 -78.897800 -24.328900 0.000322 -0.000009 15.507200 -5.593290 -109.356000 -22.291500 -0.000108 -0.000004 21.012100 5.230800 1.934740 -2.192480 -6.469440 -0.000000 -173.889000 -11.381300 -2.303680 39.081100 -0.000007 -0.000012 -0.191211 0.275203 34.791900 40.985400 -0.000006 -0.000013 -0.184232 4.089970 -70.276700 11.754300 -0.000000 0.000003 -0.000123 -0.001225 -16.624400 -2.192510 6.469440 -0.000001 175.079000 19.048000 178.884000 -39.081100 -0.002282 -0.040193 -0.061886 0.096336 34.081500 -40.985400 0.000008 0.000006 6.161800 12.379700 -71.401500 -11.754300 -0.000006 -0.000006 -0.002476 -0.034521 -17.976900
0.000000 0.000000 0.000000 0.000000 0.000000 -0.000000 -0.578620 90.244500 -3.206840 88.951000 -3.045950 11.866000 15.735700 0.000005 -0.000001 86.549800 76.286300 -87.541100 8.984550 -0.406207 -0.000000 19.603400 -1.716930 -1.691880 16.377300 -0.000001 -0.000001 12.576900 -2.613120 2.951960 6.456720 -0.000001 -0.000000 -7.577890 -0.892961 -2.209060 12.994200 -0.242716 4.980390 -91.310100 5.384010 -76.302500 5.348090 -0.000007 -0.000001 -47.364500 41.078700 -34.816100 24.328600 0.000019 0.000005 6.639090 17.126000 -21.567100 22.291600 -0.000001 0.000005 10.738800 5.241140 1.665760 12.994500 -0.242716 -4.980390 89.585000 1.608540 -75.532000 -5.348130 -0.000001 -0.000004 -73.606200 -12.496200 -78.900300 -24.328900 0.000322 -0.000009 15.479900 -5.596830 -109.400000 -22.291500 -0.000108 -0.000004 20.990700 5.230500 1.942650 -2.192480 -6.469440 -0.000000 -173.861000 -11.419600 -2.341350 39.081100 -0.000007 -0.000012 -0.192765 0.277404 34.795400 40.985400 -0.000006 -0.000013 -0.202305 4.048900 -70.274900 11.754300 -0.000000 0.000003 -0.000131 -0.001291 -16.626800 -2.192510 6.469440 -0.000001 175.112000 19.047500 178.845000 -39.081100 -0.002282 -0.040193 -0.066308 0.102951 34.061300 -40.985400 0.000008 0.000006 6.161010 12.436700 -71.384600 -11.754300 -0.000006 -0.000006 -0.002438 -0.034071 -17.958600
0.000000 0.000000 0.000000 0.000000 0.000000 -0.000000 -0.584672 90.248900 -3.212580 88.922200 -3.092390 11.841300 15.735700 0.000005 -0.000001 86.563000 76.280300 -87.567100 8.984550 -0.406207 -0.000000 19.615500 -1.712810 -1.717920 16.377300 -0.000001 -0.000001 12.531600 -2.614050 2.928960 6.456720 -0.000001 -0.000000 -7.581380 -0.896875 -2.225370 12.994200 -0.242716 4.980390 -91.305200 5.368360 -76.313100 5.348090 -0.000007 -0.000001 -47.344800 41.156800 -34.833300 24.328600 0.000019 0.000005 6.593820 17.030300 -21.538300 22.291600 -0.000001 0.000005 10.722700 5.241400 1.659050 12.994500 -0.242716 -4.980390 89.578900 1.633920 -75.545600 -5.348130 -0.000001 -0.000004 -73.586300 -12.460900 -78.856300 -24.328900 0.000322 -0.000009 15.498100 -5.595310 -109.373000 -22.291500 -0.000108 -0.000004 20.957500 5.231010 1.929310 -2.192480 -6.469440 -0.000000 -173.822000 -11.427300 -2.355060 39.081100 -0.000007 -0.000012 -0.195958 0.282088 34.786900 40.985400 -0.000006 -0.000013 -0.208626 4.062660 -70.272800 11.754300 -0.000000 0.000003 -0.000145 -0.001415 -16.631400 -2.192510 6.469440 -0.000001 175.165000 19.041300 178.827000 -39.081100 -0.002282 -0.040193 -0.062038 0.096725 34.036300 -40.985400 0.000008 0.000006 6.232400 12.432600 -71.386300 -11.754300 -0.000006 -0.000006 -0.002482 -0.034596 -17.980000
0.000000 0.000000 0.000000 0.000000 0.000000 -0.000000 -0.586014 90.256600 -3.223150 88.904500 -3.139510 11.798400 15.735700 0.000005 -0.000001 86.545900 76.278300 -87.562900 8.984550 -0.406207 -0.000000 19.618800 -1.722390 -1.742100 16.377300 -0.000001 -0.000001 12.409800 -2.598430 2.887150 6.456720 -0.000001 -0.000000 -7.618840 -0.870352 -2.238520 12.994200 -0.242716 4.980390 -91.310900 5.385420 -76.297400 5.348090 -0.000007 -0.000001 -47.352000 41.178200 -34.857000 24.328600 0.000019 0.000005 6.600260 17.110300 -21.468700 22.291600 -0.000001 0.000005 10.688200 5.242550 1.628750 12.994500 -0.242716 -4.980390 89.578300 1.639160 -75.569300 -5.348130 -0.000001 -0.000004 -73.577200 -12.419100 -78.832500 -24.328900 0.000322 -0.000009 15.628900 -5.626620 -109.314000 -22.291500 -0.000108 -0.000004 21.002800 5.228000 2.007160 -2.192480 -6.469440 -0.000000 -173.805000 -11.477400 -2.387300 39.081100 -0.000007 -0.000012 -0.194960 0.280894 34.763600 40.985400 -0.000006 -0.000013 -0.216121 4.037420 -70.254500 11.754300 -0.000000 0.000003 -0.000138 -0.001351 -16.629000 -2.192510 6.469440 -0.000001 175.209000 19.034600 178.788000 -39.081100 -0.002282 -0.040193 -0.060423 0.094478 33.995800 -40.985400 0.000008 0.000006 6.241470 12.461300 -71.356900 -11.754300 -0.000006 -0.000006 -0.002478 -0.034546 -17.977900
0.000000 0.000000 0.000000 0.000000 0.000000 -0.000000 -0.579054 90.260800 -3.224160 88.909400 -3.163260 11.763700 15.735700 0.000005 -0.000001 86.547300 76.273200 -87.584600 8.984550 -0.406207 -0.000000 19.628700 -1.724490 -1.782420 16.377300 -0.000001 -0.000001 12.232800 -2.582230 2.866290 6.456720 -0.000001 -0.000000 -7.693040 -0.818299 -2.264970 12.994200 -0.242716 4.980390 -91.313500 5.400040 -76.307500 5.348090 -0.000007 -0.000001 -47.295100 41.250500 -34.926100 24.328600 0.000019 0.000005 6.520110 16.963800 -21.391100 22.291600 -0.000001 0.000005 10.727600 5.243740 1.597540 12.994500 -0.242716 -4.980390 89.567200 1.680940 -75.557700 -5.348130 -0.000001 -0.000004 -73.580800 -12.377000 -78.803700 -24.328900 0.000322 -0.000009 15.581500 -5.600470 -109.289000 -22.291500 -0.000108 -0.000004 20.952200 5.229440 1.969870 -2.192480 -6.469440 -0.000000 -173.822000 -11.493900 -2.417190 39.081100 -0.000007 -0.000012 -0.193335 0.278742 34.745500 40.985400 -0.000006 -0.000013 -0.219623 4.011780 -70.240700 11.754300 -0.000000 0.000003 -0.000141 -0.001381 -16.630100 -2.192510 6.469440 -0.000001 175.211000 19.020500 178.754000 -39.081100 -0.002282 -0.040193 -0.062492 0.097638 33.970800 -40.985400 0.000008 0.000006 6.157100 12.502100 -71.316200 -11.754300 -0.000006 -0.000006 -0.002474 -0.034500 -17.976000
0.000000 0.000000 0.000000 0.000000 0.000000 -0.000000 -0.580719 90.264800 -3.227370 88.894400 -3.166070 11.725500 15.735700 0.000005 -0.000001 86.506600 76.281300 -87.553900 8.984550 -0.406207 -0.000000 19.611200 -1.743510 -1.799450 16.377300 -0.000001 -0.000001 12.057100 -2.557890 2.815160 6.456720 -0.000001 -0.000000 -7.782380 -0.781199 -2.231040 12.994200 -0.242716 4.980390 -91.316000 5.416770 -76.323100 5.348090 -0.000007 -0.000001 -47.353600 41.257000 -34.851600 24.328600 0.000019 0.000005 6.549350 17.003000 -21.435400 22.291600 -0.000001 0.000005 10.745900 5.242610 1.627310 12.994500 -0.242716 -4.980390 89.561400 1.705720 -75.577100 -5.348130 -0.000001 -0.000004 -73.562500 -12.357400 -78.740900 -24.328900 0.000322 -0.000009 15.597700 -5.591620 -109.241000 -22.291500 -0.000108 -0.000004 20.933400 5.227850 2.011040 -2.192480 -6.469440 -0.000000 -173.814000 -11.490200 -2.450570 39.081100 -0.000007 -0.000012 -0.193704 0.279383 34.735000 40.985400 -0.000006 -0.000013 -0.217824 4.022290 -70.235600 11.754300 -0.000000 0.000003 -0.000130 -0.001288 -16.626700 -2.192510 6.469440 -0.000001 175.236000 19.049500 178.727000 -39.081100 -0.002282 -0.040193 -0.062040 0.097049 33.948500 -40.985400 0.000008 0.000006 6.183060 12.495600 -71.310300 -11.754300 -0.000006 -0.000006 -0.002513 -0.034962 -17.994800
0.000000 0.000000 0.000000 0.000000 0.000000 -0.000000 -0.584218 90.271900 -3.219870 88.886400 -3.180810 11.679800 15.735700 0.000005 -0.000001 86.526700 76.293200 -87.587700 8.984550 -0.406207 -0.000000 19.588000 -1.733970 -1.828900 16.377300 -0.000001 -0.000001 11.837200 -2.543280 2.765780 6.456720 -0.000001 -0.000000 -7.893860 -0.750960 -2.174340 12.994200 -0.242716 4.980390 -91.320100 5.435980 -76.328400 5.348090 -0.000007 -0.000001 -47.385900 41.229600 -34.830900 24.328600 0.000019 0.000005 6.582370 17.063500 -21.467100 22.291600 -0.000001 0.000005 10.632600 5.243480 1.604290 12.994500 -0.242716 -4.980390 89.540500 1.785390 -75.564700 -5.348130 -0.000001 -0.000004 -73.541100 -12.347100 -78.691400 -24.328900 0.000322 -0.000009 15.554600 -5.549120 -109.157000 -22.291500 -0.000108 -0.000004 20.980400 5.230850 1.933490 -2.192480 -6.469440 -0.000000 -173.814000 -11.504100 -2.476810 39.081100 -0.000007 -0.000012 -0.191875 0.277042 34.706200 40.985400 -0.000006 -0.000013 -0.220157 4.018690 -70.225300 11.754300 -0.000000 0.000003 -0.000140 -0.001369 -16.629700 -2.192510 6.469440 -0.000001 175.280000 19.052800 178.688000 -39.081100 -0.002282 -0.040193 -0.055426 0.087269 33.934900 -40.985400 0.000008 0.000006 6.361480 12.452900 -71.351500 -11.754300 -0.000006 -0.000006 -0.002589 -0.035858 -18.031300
0.000000 0.000000 0.000000 0.000000 0.000000 -0.000000 -0.578668 90.275500 -3.205020 88.901600 -3.167380 11.672200 15.735700 0.000005 -0.000001 86.515800 76.304800 -87.593800 8.984550 -0.406207 -0.000000 19.564200 -1.739300 -1.862380 16.377300 -0.000001 -0.000001 11.610400 -2.530630 2.731030 6.456720 -0.000001 -0.000000 -8.053380 -0.738258 -2.116930 12.994200 -0.242716 4.980390 -91.331200 5.471560 -76.304100 5.348090 -0.000007 -0.000001 -47.355500 41.286900 -34.845600 24.328600 0.000019 0.000005 6.555620 16.965000 -21.496500 22.291600 -0.000001 0.000005 10.688800 5.242350 1.634010 12.994500 -0.242716 -4.980390 89.535200 1.807940 -75.579200 -5.348130 -0.000001 -0.000004 -73.567400 -12.366900 -78.571800 -24.328900 0.000322 -0.000009 15.569700 -5.543020 -109.120000 -22.291500 -0.000108 -0.000004 20.952100 5.229220 1.975710 -2.192480 -6.469440 -0.000000 -173.831000 -11.527300 -2.460490 39.081100 -0.000007 -0.000012 -0.190901 0.275917 34.678900 40.985400 -0.000006 -0.000013 -0.214492 4.022330 -70.222200 11.754300 -0.000000 0.000003 -0.000133 -0.001308 -16.627400 -2.192510 6.469440 -0.000001 175.254000 19.035700 178.704000 -39.081100 -0.002282 -0.040193 -0.057803 0.090884 33.910700 -40.985400 0.000008 0.000006 6.283110 12.475900 -71.333300 -11.754300 -0.000006 -0.000006 -0.002497 -0.034779 -17.987400
